Coordinates
version=1
nRows=13
nColumns=38
inDegrees=no

Units are S.I. units (second, meters, Newtons, ...)
If the header above contains a line with 'inDegrees', this indicates whether rotational values are in degrees (yes) or radians (no).

endheader
time	pelvis_tilt	pelvis_list	pelvis_rotation	pelvis_tx	pelvis_ty	pelvis_tz	hip_flexion_r	hip_adduction_r	hip_rotation_r	knee_angle_r	ankle_angle_r	subtalar_angle_r	mtp_angle_r	hip_flexion_l	hip_adduction_l	hip_rotation_l	knee_angle_l	ankle_angle_l	subtalar_angle_l	mtp_angle_l	lumbar_extension	lumbar_bending	lumbar_rotation	arm_flex_r	arm_add_r	arm_rot_r	elbow_flex_r	pro_sup_r	wrist_flex_r	wrist_dev_r	arm_flex_l	arm_add_l	arm_rot_l	elbow_flex_l	pro_sup_l	wrist_flex_l	wrist_dev_l
1.27	3.09774	1.12039	-1.45412	0.778512	0.748997	0.951932	-0.509471	0.0945782	-0.237895	0.239739	-0.14939	0	0	0.0453114	-0.165193	-0.266497	0.855401	-0.243884	0	0	-0.417871	0.0934059	0.234377	-0.138379	-0.878394	0.00639758	1.62009	0.397132	0	0	0.665612	-0.522882	0.871322	1.09988	0.586697	0	0
1.28	3.09834	1.12779	-1.45156	0.77804	0.758665	0.95062	-0.516374	0.0962811	-0.238047	0.23415	-0.144006	0	0	0.0474143	-0.153667	-0.262015	0.784079	-0.239539	0	0	-0.411072	0.0923189	0.230321	-0.136501	-0.876002	0.00669799	1.61845	0.400586	0	0	0.66511	-0.523285	0.8704	1.0993	0.587694	0	0
1.29	3.09915	1.13693	-1.44817	0.777473	0.768321	0.94912	-0.52064	0.0980119	-0.238765	0.230559	-0.137154	0	0	0.0481103	-0.138839	-0.247165	0.705426	-0.232701	0	0	-0.40243	0.0911466	0.225055	-0.134287	-0.872301	0.0075275	1.61647	0.405138	0	0	0.664438	-0.523606	0.869159	1.09818	0.589248	0	0
1.3	3.09827	1.14839	-1.44252	0.776787	0.778005	0.947396	-0.521464	0.0999131	-0.239419	0.228199	-0.129744	0	0	0.0457988	-0.119931	-0.21434	0.613933	-0.226857	0	0	-0.391257	0.0906862	0.218852	-0.131658	-0.867404	0.00835232	1.61378	0.408752	0	0	0.6629	-0.523701	0.866818	1.09642	0.591679	0	0
1.31	3.09846	1.16344	-1.43706	0.776096	0.787491	0.9456	-0.517419	0.101193	-0.238018	0.226965	-0.122156	0	0	0.0294304	-0.0871541	-0.1277	0.480855	-0.226581	0	0	-0.376807	0.0891197	0.210731	-0.126462	-0.860289	0.0108605	1.60853	0.412711	0	0	0.660213	-0.523782	0.862491	1.09371	0.595727	0	0
1.32	3.08846	1.17501	-1.42334	0.775274	0.797612	0.943324	-0.517946	0.106134	-0.237394	0.225135	-0.1154	0	0	0.0275879	-0.082098	-0.110655	0.39813	-0.231884	0	0	-0.363922	0.0921741	0.205723	-0.124446	-0.858211	0.013156	1.60618	0.417806	0	0	0.657835	-0.524155	0.860397	1.09309	0.597338	0	0
1.33	3.07683	1.1856	-1.40903	0.774443	0.807797	0.941032	-0.518542	0.110978	-0.237009	0.225658	-0.108133	0	0	0.0264469	-0.0802434	-0.102769	0.32664	-0.236281	0	0	-0.351758	0.0954821	0.201604	-0.122302	-0.856544	0.0160419	1.60397	0.424312	0	0	0.655384	-0.524411	0.858286	1.0925	0.598699	0	0
1.34	3.06617	1.19504	-1.39679	0.773656	0.817984	0.938863	-0.518862	0.114496	-0.236446	0.228898	-0.101728	0	0	0.0241427	-0.078657	-0.099169	0.264312	-0.237938	0	0	-0.341204	0.0979575	0.198394	-0.120233	-0.854129	0.0176762	1.60184	0.428662	0	0	0.653174	-0.524789	0.856117	1.09204	0.600233	0	0
1.35	3.05714	1.2032	-1.38716	0.772879	0.828171	0.936847	-0.51881	0.116316	-0.235904	0.23558	-0.095238	0	0	0.019448	-0.0764117	-0.0955684	0.208226	-0.240485	0	0	-0.332272	0.099533	0.195898	-0.117824	-0.851013	0.0185221	1.5994	0.431479	0	0	0.651187	-0.525056	0.853772	1.09135	0.602216	0	0
1.36	3.04863	1.20957	-1.37918	0.77207	0.838405	0.934993	-0.519553	0.116895	-0.234439	0.244798	-0.0892109	0	0	0.0121678	-0.0744147	-0.0915526	0.160083	-0.245074	0	0	-0.325343	0.101003	0.194713	-0.115866	-0.848751	0.019397	1.59757	0.434826	0	0	0.649471	-0.524789	0.851374	1.09043	0.604493	0	0
1.37	3.0412	1.21377	-1.37348	0.771239	0.848711	0.933331	-0.52167	0.116298	-0.232106	0.255824	-0.0851333	0	0	0.00439228	-0.0731862	-0.0909449	0.128151	-0.250027	0	0	-0.321103	0.102324	0.195063	-0.115082	-0.847611	0.0197017	1.59715	0.438641	0	0	0.648464	-0.524563	0.849822	1.09012	0.606571	0	0
1.38	3.03642	1.21587	-1.37137	0.770435	0.859113	0.931967	-0.523599	0.114185	-0.229268	0.268197	-0.0814419	0	0	-0.00181105	-0.0719652	-0.0952525	0.118407	-0.256578	0	0	-0.319561	0.102758	0.196523	-0.115067	-0.846335	0.0186662	1.59726	0.441925	0	0	0.647989	-0.524511	0.848713	1.09019	0.608524	0	0
1.39	3.03455	1.21664	-1.37272	0.769687	0.869624	0.930891	-0.523599	0.110777	-0.225526	0.281587	-0.0789405	0	0	-0.00493086	-0.0706245	-0.104023	0.132428	-0.260692	0	0	-0.319808	0.101979	0.198702	-0.115675	-0.844907	0.0169097	1.5976	0.44409	0	0	0.648115	-0.524739	0.8485	1.09048	0.609519	0	0
